{"title":"Chris.Ryans.Elite.World.Cops.S01E05.Israel.PDTV.XviD","uid":4722538,"size":366336481,"categoryP":"video","categoryS":"tv_shows","magnet":"?xt=urn:btih:a6c2051b9d142efec38ca390e962a1e18dc41baa&amp;dn=Chris.Ryans.Elite.World.Cops.S01E05.Israel.PDTV.XviD&amp;tr=udp%3A%2F%2Ftracker.openbittorrent.com%3A80&amp;tr=udp%3A%2F%2Fopen.demonii.com%3A1337&amp;tr=udp%3A%2F%2Ftracker.coppersurfer.tk%3A6969&amp;tr=udp%3A%2F%2Fexodus.desync.com%3A6969","seeders":1,"leechers":0,"uploader":"rokfelerr","files":-1,"time":1234594220,"description":"The author and former SAS soldier shadows the world's most remarkable police units as they confront crime on the frontline. In Israel, Ryan faces his most difficult task yet as he joins the Magav, the country's border security force which has to police arguably the most disputed territorial boundary in the world. Aside from the political dimension of dealing with their Palestinian neighbours, the Magav also have to counter a range of criminal activities such as drug dealing.\n\n\n:: ScreenShot ::  &lt;a href=&quot;\nhttp://bayimg.com/eAncfaaBj&quot; rel=&quot;nofollow&quot; target=&quot;_NEW&quot;&gt;\nhttp://bayimg.com/eAncfaaBj&lt;/a&gt;\n\n\nVideo\nFormat                           : MPEG-4 Visual\nCodec ID/Hint                    : XviD\nDuration                         : 44mn 14s\nBit rate                         : 965 Kbps\nWidth                            : 608 pixels\nHeight                           : 336 pixels\nDisplay aspect ratio             : 16/9\nFrame rate                       : 25.000 fps\nResolution                       : 24 bits\nColorimetry                      : 4:2:0\nScan type                        : Progressive\nBits/(Pixel*Frame)               : 0.189\nStream size                      : 305 MiB (87%)\nWriting library                  : XviD 1.1.2 (UTC 2006-11-01)\n\nAudio\nFormat                           : MPEG Audio\nFormat version                   : Version 1\nFormat profile                   : Layer 3\nCodec ID                         : 55\nCodec ID/Hint                    : MP3\nDuration                         : 44mn 14s\nBit rate mode                    : Variable\nBit rate                         : 126 Kbps\nChannel(s)                       : 2 channels\nSampling rate                    : 48.0 KHz\nResolution                       : 16 bits\nStream size                      : 40.0 MiB (11%)\nAlignment                        : Aligned on interleaves\nInterleave, duration             : 24 ms (0.60 video frame)\nInterleave, preload duration     : 501 ms","torrent":{"xt":"urn:btih:a6c2051b9d142efec38ca390e962a1e18dc41baa","amp;dn":"Chris.Ryans.Elite.World.Cops.S01E05.Israel.PDTV.XviD","amp;tr":["udp%3A%2F%2Ftracker.openbittorrent.com%3A80","udp%3A%2F%2Fopen.demonii.com%3A1337","udp%3A%2F%2Ftracker.coppersurfer.tk%3A6969","udp%3A%2F%2Fexodus.desync.com%3A6969"],"infoHash":"a6c2051b9d142efec38ca390e962a1e18dc41baa","infoHashBuffer":{"type":"Buffer","data":[166,194,5,27,157,20,46,254,195,140,163,144,233,98,161,225,141,196,27,170]},"announce":[],"urlList":[]}}